<?xml version="1.0" standalone="no"?>
<!DOCTYPE svg PUBLIC "-//W3C//DTD SVG 20010904//EN"
 "http://www.w3.org/TR/2001/REC-SVG-20010904/DTD/svg10.dtd">
<svg version="1.0" xmlns="http://www.w3.org/2000/svg"
 width="1280.000000pt" height="1280.000000pt" viewBox="0 0 1280.000000 1280.000000"
 preserveAspectRatio="xMidYMid meet">
<metadata>
Created by potrace 1.14, written by Peter Selinger 2001-2017
</metadata>
<g transform="translate(0.000000,1280.000000) scale(0.100000,-0.100000)"
fill="#000000" stroke="none">
<path d="M10768 12745 c-2 -2 -97 -6 -213 -9 -207 -7 -327 -12 -475 -21 -196
-12 -268 -17 -310 -20 -25 -2 -79 -7 -120 -10 -41 -4 -88 -8 -105 -9 -16 -2
-64 -7 -105 -10 -41 -4 -86 -9 -100 -11 -14 -2 -52 -6 -85 -10 -70 -7 -116
-12 -325 -41 -19 -3 -57 -9 -85 -14 -27 -5 -66 -11 -85 -14 -19 -3 -60 -10
-90 -16 -30 -6 -68 -13 -85 -16 -16 -2 -37 -7 -45 -9 -8 -2 -30 -7 -49 -10
-19 -3 -37 -8 -41 -10 -4 -2 -22 -7 -40 -10 -48 -9 -200 -50 -310 -84 -644
-201 -1160 -540 -1663 -1093 -148 -162 -300 -371 -399 -546 -44 -79 -129 -254
-188 -389 -155 -353 -204 -253 -134 277 8 63 17 126 19 140 2 14 7 47 11 75 3
27 8 59 9 70 16 112 45 368 51 440 6 88 8 365 2 395 -9 40 -32 78 -53 88 -24
11 -194 10 -225 -1 -8 -3 -33 -8 -55 -11 -22 -3 -53 -9 -68 -15 -15 -6 -27 -8
-27 -6 0 6 -294 -97 -454 -159 -112 -44 -299 -107 -521 -177 -103 -32 -155
-60 -155 -84 0 -7 11 -26 24 -42 23 -28 26 -33 26 -54 0 -30 127 -57 345 -74
205 -15 242 -23 282 -61 35 -33 35 -34 29 -96 -9 -98 -34 -208 -117 -518 -45
-168 -140 -451 -188 -565 -105 -245 -228 -471 -325 -596 -12 -15 -41 -55 -66
-90 -44 -62 -207 -263 -279 -344 -126 -142 -271 -325 -337 -425 -24 -36 -49
-72 -56 -81 -41 -48 -200 -130 -348 -179 -73 -24 -388 -104 -530 -135 -83 -17
-272 -70 -323 -89 -84 -31 -127 -54 -282 -146 -177 -104 -244 -134 -465 -200
-392 -118 -471 -150 -515 -208 -16 -22 -20 -42 -19 -102 2 -133 64 -214 234
-307 49 -27 261 -110 300 -118 8 -2 58 -15 110 -29 52 -14 139 -35 194 -46
128 -28 122 -27 256 -50 63 -11 126 -22 140 -24 14 -3 77 -12 140 -21 63 -9
126 -18 140 -20 42 -6 182 -24 240 -30 30 -3 71 -8 90 -11 112 -15 382 -31
623 -35 l118 -2 25 -31 c36 -41 41 -59 70 -220 54 -311 40 -370 -196 -791
-229 -409 -312 -619 -360 -915 -14 -81 -18 -364 -7 -470 7 -65 12 -96 43 -245
8 -41 49 -181 67 -231 36 -100 93 -185 171 -257 47 -44 183 -139 192 -135 9 4
74 -64 74 -78 0 -7 7 -15 16 -18 8 -3 12 -10 9 -16 -9 -14 110 -184 175 -250
66 -67 129 -111 213 -150 107 -50 158 -60 394 -74 105 -7 136 -55 135 -211 0
-94 -6 -186 -18 -280 -3 -22 -7 -56 -9 -75 -2 -19 -6 -48 -9 -65 -2 -16 -7
-55 -11 -85 -4 -30 -8 -66 -10 -80 -21 -151 -28 -529 -12 -680 38 -360 172
-766 335 -1008 41 -61 80 -112 85 -112 11 0 3 65 -18 145 -66 245 -117 474
-133 600 -12 91 -4 349 13 415 2 8 7 42 10 75 4 32 8 62 10 65 2 3 6 30 10 60
3 30 10 80 15 110 44 268 46 465 5 670 -3 14 -7 34 -9 45 -7 35 -49 188 -85
310 -27 89 -26 93 4 88 16 -4 27 -15 34 -37 17 -51 100 -413 115 -501 10 -55
18 -94 28 -130 6 -22 12 -114 13 -205 2 -156 -4 -223 -40 -460 -49 -317 -52
-619 -10 -788 21 -85 30 -85 39 -2 4 30 8 71 11 90 2 19 7 62 10 95 8 79 15
137 29 240 11 74 34 168 111 435 58 203 69 277 68 455 -2 289 -49 496 -155
689 -83 151 -93 175 -80 188 20 20 44 -2 79 -72 34 -70 74 -187 98 -295 9 -38
29 -99 45 -135 100 -224 104 -461 15 -880 -13 -63 -16 -77 -22 -100 -15 -70
-30 -166 -26 -173 8 -14 43 14 93 76 77 95 171 296 270 577 56 158 71 241 75
405 3 104 0 129 -20 189 -27 79 -87 172 -177 278 -34 40 -65 75 -68 78 -36 29
-119 133 -114 141 7 12 65 38 98 45 40 9 124 5 167 -6 178 -48 426 -355 671
-830 62 -119 92 -182 191 -400 14 -30 60 -140 102 -245 42 -104 83 -203 90
-220 7 -16 77 -194 155 -395 205 -524 252 -633 301 -696 23 -30 47 -53 53 -51
13 4 14 97 3 172 -15 99 -82 373 -132 542 -58 195 -86 287 -95 313 -105 312
-269 929 -295 1105 -3 22 -9 64 -14 94 -5 29 -8 103 -8 163 0 200 59 358 182
484 81 83 140 125 256 181 507 246 576 286 754 431 143 117 400 385 515 537
14 19 14 19 -6 5 -14 -11 -13 -8 3 7 13 12 23 26 23 31 0 5 8 16 17 23 11 10
14 10 9 1 -4 -6 -5 -12 -2 -12 3 0 12 12 20 27 8 16 67 93 130 173 121 151
239 319 301 430 42 74 77 161 69 169 -8 8 -24 -14 -152 -194 -188 -267 -330
-436 -531 -635 -211 -208 -359 -319 -556 -415 -198 -97 -371 -145 -715 -199
-19 -3 -44 -7 -55 -10 -11 -2 -42 -7 -70 -10 -155 -21 -553 -90 -585 -102 -8
-3 -25 -8 -36 -10 -50 -9 -221 -62 -549 -169 -501 -163 -554 -178 -740 -220
-192 -42 -412 -53 -525 -26 -209 50 -467 254 -733 576 -214 260 -291 437 -290
665 0 96 17 149 56 174 65 43 125 -38 291 -394 41 -89 68 -119 90 -100 16 13
66 97 66 111 0 16 53 124 87 178 31 48 104 127 159 171 10 9 118 90 239 180
204 154 327 259 324 277 -3 19 3 31 41 73 22 25 40 48 40 53 0 4 0 10 0 15 0
25 -125 -26 -415 -170 -326 -162 -488 -219 -623 -219 -148 -1 -267 100 -277
234 -7 96 25 184 205 546 65 130 125 259 135 286 26 75 132 360 165 445 30 78
48 133 54 166 2 10 13 55 24 99 82 324 101 578 54 710 -28 75 -87 164 -187
280 -208 241 -268 357 -281 550 -8 103 11 185 70 304 66 134 87 159 266 321
316 286 564 615 750 995 60 124 142 335 154 398 2 12 16 72 31 132 15 61 29
121 31 135 2 14 11 57 20 95 8 39 16 79 19 90 9 48 95 482 99 505 5 31 76 369
80 390 28 117 53 197 81 264 9 21 14 47 12 57 -5 19 31 59 75 82 34 17 153 23
143 7 -7 -12 21 -50 38 -50 31 0 150 -44 190 -71 100 -66 108 -129 61 -429 -9
-52 -20 -115 -26 -140 -5 -25 -12 -56 -14 -69 -38 -194 -124 -458 -204 -619
-81 -165 -191 -289 -351 -397 -157 -105 -181 -135 -112 -135 24 0 45 -8 60
-22 23 -21 25 -22 131 -9 59 8 112 14 117 16 10 2 85 13 145 21 41 6 232 6
275 0 17 -2 57 -7 90 -12 90 -11 169 -8 203 10 45 23 68 58 95 144 14 42 37
115 52 162 44 139 111 269 238 460 61 92 180 256 196 270 3 3 24 28 46 55 22
28 44 55 50 61 5 6 44 49 85 95 117 131 284 293 415 405 428 365 821 575 1330
709 168 44 178 47 194 50 256 51 353 68 446 81 28 3 59 8 70 10 11 2 38 7 60
9 22 3 51 7 65 10 14 2 54 7 90 11 36 3 67 7 70 9 3 2 41 6 85 10 44 4 87 9
95 10 8 2 49 6 90 10 102 11 103 11 205 20 50 4 97 9 106 10 9 2 59 6 110 10
52 4 110 8 129 10 19 2 80 7 135 10 55 4 116 9 135 10 189 18 666 24 694 8 14
-8 4 -15 -56 -36 -72 -26 -237 -75 -412 -123 -350 -96 -623 -184 -851 -277
-57 -23 -518 -219 -560 -238 -41 -18 -172 -58 -225 -67 -58 -11 -243 -9 -320
3 -135 20 -294 10 -412 -26 -317 -97 -822 -519 -1169 -975 -30 -38 -103 -135
-163 -215 -60 -79 -112 -146 -116 -149 -3 -3 -21 -25 -40 -50 -112 -147 -269
-267 -450 -346 -105 -46 -130 -63 -92 -65 9 0 28 -3 42 -6 14 -2 32 -6 39 -7
8 -2 20 -11 25 -22 6 -10 15 -22 20 -26 16 -11 112 -22 291 -33 395 -23 581
-61 930 -190 50 -18 187 -69 305 -113 118 -44 301 -108 405 -142 105 -34 197
-66 205 -70 13 -8 13 -9 0 -13 -8 -3 -33 -8 -55 -11 -82 -12 -102 -17 -185
-43 -47 -15 -106 -38 -133 -53 -170 -93 -183 -214 -72 -676 39 -162 87 -288
139 -367 61 -92 108 -110 148 -55 19 28 23 45 23 108 0 41 -4 100 -9 130 -10
69 -13 235 -4 274 17 71 67 141 128 179 30 18 48 21 140 20 153 -1 256 -34
400 -127 123 -80 240 -206 240 -258 0 -82 -172 -246 -400 -383 -150 -90 -157
-101 -124 -201 21 -62 47 -95 219 -276 119 -126 159 -170 227 -254 60 -74 238
-322 313 -434 17 -25 34 -49 38 -55 4 -5 41 -56 82 -113 186 -259 355 -441
498 -535 93 -62 168 -97 200 -95 23 2 38 -5 302 -132 93 -44 185 -88 205 -97
19 -9 38 -18 43 -20 4 -2 7 -2 7 1 0 3 -23 17 -52 32 -99 50 -314 187 -428
272 -127 95 -310 271 -388 372 -27 36 -112 157 -188 270 -149 222 -249 363
-304 431 -43 52 -220 259 -238 278 -48 50 -93 122 -87 140 8 27 71 85 210 192
204 157 280 252 303 376 23 129 -5 195 -222 522 -296 446 -410 555 -691 660
-33 13 -69 27 -80 31 -11 5 -65 24 -120 43 -271 94 -375 130 -435 152 -36 13
-112 40 -170 60 -314 111 -501 196 -549 250 -38 44 -35 88 15 192 125 262 509
706 827 958 21 17 44 35 50 41 30 27 172 128 263 187 247 161 595 339 899 459
55 21 109 43 120 48 27 11 161 61 265 98 47 17 146 53 220 80 74 27 207 75
295 107 216 77 402 153 448 182 37 23 50 40 22 29 -8 -3 -15 -2 -15 2 0 4 71
33 158 65 124 45 168 57 209 56 33 -1 75 7 112 21 63 23 141 82 141 105 0 8 9
33 21 55 18 33 19 43 8 56 -31 37 -119 55 -344 69 -103 7 -562 14 -567 10z
m-7546 -4542 c-9 -4 -10 -9 -2 -18 10 -12 44 -12 163 -1 44 5 96 -10 98 -27 1
-7 3 -21 4 -32 1 -11 6 -65 9 -120 4 -55 11 -119 16 -142 4 -24 6 -43 5 -43
-1 0 -29 12 -61 26 -50 22 -74 26 -154 27 -98 0 -184 -7 -280 -23 -30 -5 -71
-12 -90 -15 -148 -25 -391 -89 -650 -170 -116 -37 -280 -80 -335 -89 -151 -24
-231 -33 -330 -35 -87 -2 -89 -2 -72 17 10 10 33 28 52 38 40 21 46 35 13 27
-56 -14 -3 8 110 46 137 46 144 47 116 26 -18 -15 -15 -15 31 -10 84 10 265
61 389 110 103 40 362 182 407 221 8 8 19 14 23 14 4 0 19 9 33 20 22 17 23
20 7 20 -19 1 -19 1 0 11 25 15 197 62 336 93 63 14 124 27 135 29 28 6 42 6
27 0z"/>
<path d="M6805 8113 c-126 -27 -266 -123 -462 -319 -117 -116 -138 -154 -88
-154 13 0 28 -8 34 -17 9 -16 28 -18 173 -18 160 0 164 -1 253 -34 306 -113
344 -124 450 -124 197 0 373 77 522 230 53 55 63 72 74 121 12 55 13 63 10 97
-6 76 -514 213 -816 219 -71 2 -139 1 -150 -1z"/>
</g>
</svg>
