<svg><defs/><symbol id="icon-email" viewBox="0 0 40 32"><path d="M36 0H4C1.79 0 0.02 1.79 0.02 4L0 28C0 30.21 1.79 32 4 32H36C38.21 32 40 30.21 40 28V4C40 1.79 38.21 0 36 0ZM36 8L20 18L4 8V4L20 14L36 4V8Z" fill="#f1fceb"/></symbol><symbol id="icon-twitter" viewBox="0 0 24 24"><path d="M24 4.557c-.883.392-1.832.656-2.828.775 1.017-.609 1.798-1.574 2.165-2.724-.951.564-2.005.974-3.127 1.195-.897-.957-2.178-1.555-3.594-1.555-3.179 0-5.515 2.966-4.797 6.045-4.091-.205-7.719-2.165-10.148-5.144-1.29 2.213-.669 5.108 1.523 6.574-.806-.026-1.566-.247-2.229-.616-.054 2.281 1.581 4.415 3.949 4.89-.693.188-1.452.232-2.224.084.626 1.956 2.444 3.379 4.6 3.419-2.07 1.623-4.678 2.348-7.29 2.04 2.179 1.397 4.768 2.212 7.548 2.212 9.142 0 14.307-7.721 13.995-14.646.962-.695 1.797-1.562 2.457-2.549z"/></symbol></svg>